<svg viewBox="0 0 3840 2160" xmlns="http://www.w3.org/2000/svg"><mask id="b" x="0" y="0" width="3840" height="2160"><path fill="url(#a)" d="M0 0h3840v2160H0z"/></mask><path fill="#fff" d="M0 0h3840v2160H0z"/><g style="transform-origin:center center" stroke="#d7dbdf" stroke-width="3.456" mask="url(#b)"><path fill="none" d="M0 0h137.143v137.143H0z"/><path fill="#d7dbdf47" d="M137.143 0h137.143v137.143H137.143z"/><path fill="none" d="M274.286 0h137.143v137.143H274.286zM411.429 0h137.143v137.143H411.429z"/><path fill="#d7dbdf71" d="M548.571 0h137.143v137.143H548.571z"/><path fill="none" d="M685.714 0h137.143v137.143H685.714z"/><path fill="none" d="M822.857 0H960v137.143H822.857zM960 0h137.143v137.143H960zM1097.143 0h137.143v137.143h-137.143z"/><path fill="#d7dbdf08" d="M1234.286 0h137.143v137.143h-137.143z"/><path fill="none" d="M1371.429 0h137.143v137.143h-137.143z"/><path fill="#d7dbdf6a" d="M1508.571 0h137.143v137.143h-137.143z"/><path fill="#d7dbdf88" d="M1645.714 0h137.143v137.143h-137.143z"/><path fill="none" d="M1782.857 0H1920v137.143h-137.143zM1920 0h137.143v137.143H1920zM2057.143 0h137.143v137.143h-137.143zM2194.286 0h137.143v137.143h-137.143z"/><path fill="#d7dbdf69" d="M2331.429 0h137.143v137.143h-137.143z"/><path fill="none" d="M2468.571 0h137.143v137.143h-137.143z"/><path fill="#d7dbdf01" d="M2605.714 0h137.143v137.143h-137.143z"/><path fill="none" d="M2742.857 0H2880v137.143h-137.143zM2880 0h137.143v137.143H2880zM3017.143 0h137.143v137.143h-137.143zM3154.286 0h137.143v137.143h-137.143z"/><path fill="#d7dbdf3b" d="M3291.429 0h137.143v137.143h-137.143z"/><path fill="none" d="M3428.571 0h137.143v137.143h-137.143z"/><path fill="#d7dbdfb2" d="M3565.714 0h137.143v137.143h-137.143z"/><path fill="none" d="M3702.857 0H3840v137.143h-137.143z"/><path fill="#d7dbdfce" d="M0 137.143h137.143v137.143H0z"/><path fill="#d7dbdf3b" d="M137.143 137.143h137.143v137.143H137.143z"/><path fill="#d7dbdf51" d="M274.286 137.143h137.143v137.143H274.286z"/><path fill="#d7dbdf03" d="M411.429 137.143h137.143v137.143H411.429z"/><path fill="none" d="M548.571 137.143h137.143v137.143H548.571zM685.714 137.143h137.143v137.143H685.714z"/><path fill="none" d="M822.857 137.143H960v137.143H822.857zM960 137.143h137.143v137.143H960z"/><path fill="#d7dbdf31" d="M1097.143 137.143h137.143v137.143h-137.143z"/><path fill="none" d="M1234.286 137.143h137.143v137.143h-137.143zM1371.429 137.143h137.143v137.143h-137.143z"/><path fill="none" d="M1508.571 137.143h137.143v137.143h-137.143zM1645.714 137.143h137.143v137.143h-137.143z"/><path fill="#d7dbdfcc" d="M1782.857 137.143H1920v137.143h-137.143z"/><path fill="#d7dbdf0f" d="M1920 137.143h137.143v137.143H1920z"/><path fill="none" d="M2057.143 137.143h137.143v137.143h-137.143zM2194.286 137.143h137.143v137.143h-137.143zM2331.429 137.143h137.143v137.143h-137.143z"/><path fill="#d7dbdf48" d="M2468.571 137.143h137.143v137.143h-137.143z"/><path fill="#d7dbdf38" d="M2605.714 137.143h137.143v137.143h-137.143z"/><path fill="#d7dbdf96" d="M2742.857 137.143H2880v137.143h-137.143z"/><path fill="#d7dbdfac" d="M2880 137.143h137.143v137.143H2880z"/><path fill="none" d="M3017.143 137.143h137.143v137.143h-137.143z"/><path fill="#d7dbdf3b" d="M3154.286 137.143h137.143v137.143h-137.143z"/><path fill="#d7dbdf91" d="M3291.429 137.143h137.143v137.143h-137.143z"/><path fill="none" d="M3428.571 137.143h137.143v137.143h-137.143z"/><path fill="#d7dbdf6a" d="M3565.714 137.143h137.143v137.143h-137.143z"/><path fill="none" d="M3702.857 137.143H3840v137.143h-137.143zM0 274.286h137.143v137.143H0zM137.143 274.286h137.143v137.143H137.143zM274.286 274.286h137.143v137.143H274.286z"/><path fill="#d7dbdf4f" d="M411.429 274.286h137.143v137.143H411.429z"/><path fill="#d7dbdf4f" d="M548.571 274.286h137.143v137.143H548.571z"/><path fill="none" d="M685.714 274.286h137.143v137.143H685.714z"/><path fill="none" d="M822.857 274.286H960v137.143H822.857zM960 274.286h137.143v137.143H960zM1097.143 274.286h137.143v137.143h-137.143zM1234.286 274.286h137.143v137.143h-137.143zM1371.429 274.286h137.143v137.143h-137.143z"/><path fill="none" d="M1508.571 274.286h137.143v137.143h-137.143z"/><path fill="#d7dbdfda" d="M1645.714 274.286h137.143v137.143h-137.143z"/><path fill="none" d="M1782.857 274.286H1920v137.143h-137.143zM1920 274.286h137.143v137.143H1920zM2057.143 274.286h137.143v137.143h-137.143z"/><path fill="#d7dbdf25" d="M2194.286 274.286h137.143v137.143h-137.143z"/><path fill="none" d="M2331.429 274.286h137.143v137.143h-137.143z"/><path fill="none" d="M2468.571 274.286h137.143v137.143h-137.143z"/><path fill="#d7dbdfc8" d="M2605.714 274.286h137.143v137.143h-137.143z"/><path fill="none" d="M2742.857 274.286H2880v137.143h-137.143zM2880 274.286h137.143v137.143H2880zM3017.143 274.286h137.143v137.143h-137.143zM3154.286 274.286h137.143v137.143h-137.143zM3291.429 274.286h137.143v137.143h-137.143z"/><path fill="none" d="M3428.571 274.286h137.143v137.143h-137.143zM3565.714 274.286h137.143v137.143h-137.143zM3702.857 274.286H3840v137.143h-137.143z"/><path fill="#d7dbdfa7" d="M0 411.429h137.143v137.143H0z"/><path fill="#d7dbdf00" d="M137.143 411.429h137.143v137.143H137.143z"/><path fill="none" d="M274.286 411.429h137.143v137.143H274.286zM411.429 411.429h137.143v137.143H411.429z"/><path fill="none" d="M548.571 411.429h137.143v137.143H548.571zM685.714 411.429h137.143v137.143H685.714z"/><path fill="none" d="M822.857 411.429H960v137.143H822.857zM960 411.429h137.143v137.143H960zM1097.143 411.429h137.143v137.143h-137.143z"/><path fill="#d7dbdf5c" d="M1234.286 411.429h137.143v137.143h-137.143z"/><path fill="none" d="M1371.429 411.429h137.143v137.143h-137.143z"/><path fill="none" d="M1508.571 411.429h137.143v137.143h-137.143zM1645.714 411.429h137.143v137.143h-137.143z"/><path fill="#d7dbdf21" d="M1782.857 411.429H1920v137.143h-137.143z"/><path fill="none" d="M1920 411.429h137.143v137.143H1920zM2057.143 411.429h137.143v137.143h-137.143zM2194.286 411.429h137.143v137.143h-137.143zM2331.429 411.429h137.143v137.143h-137.143z"/><path fill="none" d="M2468.571 411.429h137.143v137.143h-137.143zM2605.714 411.429h137.143v137.143h-137.143z"/><path fill="#d7dbdf5c" d="M2742.857 411.429H2880v137.143h-137.143z"/><path fill="none" d="M2880 411.429h137.143v137.143H2880zM3017.143 411.429h137.143v137.143h-137.143zM3154.286 411.429h137.143v137.143h-137.143z"/><path fill="#d7dbdf27" d="M3291.429 411.429h137.143v137.143h-137.143z"/><path fill="#d7dbdf78" d="M3428.571 411.429h137.143v137.143h-137.143z"/><path fill="#d7dbdffc" d="M3565.714 411.429h137.143v137.143h-137.143z"/><path fill="none" d="M3702.857 411.429H3840v137.143h-137.143zM0 548.571h137.143v137.143H0zM137.143 548.571h137.143v137.143H137.143zM274.286 548.571h137.143v137.143H274.286zM411.429 548.571h137.143v137.143H411.429z"/><path fill="none" d="M548.571 548.571h137.143v137.143H548.571zM685.714 548.571h137.143v137.143H685.714z"/><path fill="#d7dbdf8a" d="M822.857 548.571H960v137.143H822.857z"/><path fill="none" d="M960 548.571h137.143v137.143H960zM1097.143 548.571h137.143v137.143h-137.143z"/><path fill="#d7dbdfa3" d="M1234.286 548.571h137.143v137.143h-137.143z"/><path fill="#d7dbdf38" d="M1371.429 548.571h137.143v137.143h-137.143z"/><path fill="#d7dbdf21" d="M1508.571 548.571h137.143v137.143h-137.143z"/><path fill="none" d="M1645.714 548.571h137.143v137.143h-137.143zM1782.857 548.571H1920v137.143h-137.143z"/><path fill="#d7dbdf7b" d="M1920 548.571h137.143v137.143H1920z"/><path fill="#d7dbdf71" d="M2057.143 548.571h137.143v137.143h-137.143z"/><path fill="none" d="M2194.286 548.571h137.143v137.143h-137.143zM2331.429 548.571h137.143v137.143h-137.143z"/><path fill="#d7dbdfd0" d="M2468.571 548.571h137.143v137.143h-137.143z"/><path fill="none" d="M2605.714 548.571h137.143v137.143h-137.143zM2742.857 548.571H2880v137.143h-137.143zM2880 548.571h137.143v137.143H2880zM3017.143 548.571h137.143v137.143h-137.143zM3154.286 548.571h137.143v137.143h-137.143z"/><path fill="#d7dbdfac" d="M3291.429 548.571h137.143v137.143h-137.143z"/><path fill="none" d="M3428.571 548.571h137.143v137.143h-137.143z"/><path fill="#d7dbdf06" d="M3565.714 548.571h137.143v137.143h-137.143z"/><path fill="none" d="M3702.857 548.571H3840v137.143h-137.143zM0 685.714h137.143v137.143H0zM137.143 685.714h137.143v137.143H137.143zM274.286 685.714h137.143v137.143H274.286z"/><path fill="#d7dbdf93" d="M411.429 685.714h137.143v137.143H411.429z"/><path fill="#d7dbdf63" d="M548.571 685.714h137.143v137.143H548.571z"/><path fill="none" d="M685.714 685.714h137.143v137.143H685.714z"/><path fill="none" d="M822.857 685.714H960v137.143H822.857z"/><path fill="#d7dbdf56" d="M960 685.714h137.143v137.143H960z"/><path fill="none" d="M1097.143 685.714h137.143v137.143h-137.143zM1234.286 685.714h137.143v137.143h-137.143z"/><path fill="#d7dbdf9c" d="M1371.429 685.714h137.143v137.143h-137.143z"/><path fill="#d7dbdf37" d="M1508.571 685.714h137.143v137.143h-137.143z"/><path fill="none" d="M1645.714 685.714h137.143v137.143h-137.143z"/><path fill="#d7dbdff9" d="M1782.857 685.714H1920v137.143h-137.143z"/><path fill="none" d="M1920 685.714h137.143v137.143H1920zM2057.143 685.714h137.143v137.143h-137.143z"/><path fill="#d7dbdfb4" d="M2194.286 685.714h137.143v137.143h-137.143z"/><path fill="#d7dbdf26" d="M2331.429 685.714h137.143v137.143h-137.143z"/><path fill="none" d="M2468.571 685.714h137.143v137.143h-137.143z"/><path fill="#d7dbdf62" d="M2605.714 685.714h137.143v137.143h-137.143z"/><path fill="none" d="M2742.857 685.714H2880v137.143h-137.143z"/><path fill="#d7dbdf1a" d="M2880 685.714h137.143v137.143H2880z"/><path fill="#d7dbdffc" d="M3017.143 685.714h137.143v137.143h-137.143z"/><path fill="#d7dbdf26" d="M3154.286 685.714h137.143v137.143h-137.143z"/><path fill="none" d="M3291.429 685.714h137.143v137.143h-137.143z"/><path fill="#d7dbdfeb" d="M3428.571 685.714h137.143v137.143h-137.143z"/><path fill="#d7dbdf19" d="M3565.714 685.714h137.143v137.143h-137.143z"/><path fill="none" d="M3702.857 685.714H3840v137.143h-137.143zM0 822.857h137.143V960H0zM137.143 822.857h137.143V960H137.143zM274.286 822.857h137.143V960H274.286zM411.429 822.857h137.143V960H411.429z"/><path fill="none" d="M548.571 822.857h137.143V960H548.571zM685.714 822.857h137.143V960H685.714z"/><path fill="#d7dbdf33" d="M822.857 822.857H960V960H822.857z"/><path fill="#d7dbdf35" d="M960 822.857h137.143V960H960z"/><path fill="#d7dbdfdd" d="M1097.143 822.857h137.143V960h-137.143z"/><path fill="none" d="M1234.286 822.857h137.143V960h-137.143zM1371.429 822.857h137.143V960h-137.143z"/><path fill="#d7dbdfb1" d="M1508.571 822.857h137.143V960h-137.143z"/><path fill="none" d="M1645.714 822.857h137.143V960h-137.143zM1782.857 822.857H1920V960h-137.143z"/><path fill="#d7dbdf45" d="M1920 822.857h137.143V960H1920z"/><path fill="none" d="M2057.143 822.857h137.143V960h-137.143zM2194.286 822.857h137.143V960h-137.143zM2331.429 822.857h137.143V960h-137.143z"/><path fill="none" d="M2468.571 822.857h137.143V960h-137.143z"/><path fill="#d7dbdfdb" d="M2605.714 822.857h137.143V960h-137.143z"/><path fill="none" d="M2742.857 822.857H2880V960h-137.143zM2880 822.857h137.143V960H2880zM3017.143 822.857h137.143V960h-137.143zM3154.286 822.857h137.143V960h-137.143zM3291.429 822.857h137.143V960h-137.143z"/><path fill="none" d="M3428.571 822.857h137.143V960h-137.143z"/><path fill="#d7dbdf70" d="M3565.714 822.857h137.143V960h-137.143z"/><path fill="none" d="M3702.857 822.857H3840V960h-137.143zM0 960h137.143v137.143H0z"/><path fill="#d7dbdf98" d="M137.143 960h137.143v137.143H137.143z"/><path fill="none" d="M274.286 960h137.143v137.143H274.286z"/><path fill="#d7dbdfc1" d="M411.429 960h137.143v137.143H411.429z"/><path fill="#d7dbdfa4" d="M548.571 960h137.143v137.143H548.571zM685.714 960h137.143v137.143H685.714z"/><path fill="#d7dbdf79" d="M822.857 960H960v137.143H822.857z"/><path fill="none" d="M960 960h137.143v137.143H960z"/><path fill="#d7dbdf95" d="M1097.143 960h137.143v137.143h-137.143z"/><path fill="none" d="M1234.286 960h137.143v137.143h-137.143zM1371.429 960h137.143v137.143h-137.143z"/><path fill="none" d="M1508.571 960h137.143v137.143h-137.143zM1645.714 960h137.143v137.143h-137.143zM1782.857 960H1920v137.143h-137.143z"/><path fill="#d7dbdf04" d="M1920 960h137.143v137.143H1920z"/><path fill="none" d="M2057.143 960h137.143v137.143h-137.143zM2194.286 960h137.143v137.143h-137.143zM2331.429 960h137.143v137.143h-137.143z"/><path fill="#d7dbdf40" d="M2468.571 960h137.143v137.143h-137.143z"/><path fill="#d7dbdf14" d="M2605.714 960h137.143v137.143h-137.143z"/><path fill="#d7dbdfa1" d="M2742.857 960H2880v137.143h-137.143z"/><path fill="none" d="M2880 960h137.143v137.143H2880zM3017.143 960h137.143v137.143h-137.143zM3154.286 960h137.143v137.143h-137.143zM3291.429 960h137.143v137.143h-137.143z"/><path fill="none" d="M3428.571 960h137.143v137.143h-137.143zM3565.714 960h137.143v137.143h-137.143z"/><path fill="#d7dbdff1" d="M3702.857 960H3840v137.143h-137.143z"/><path fill="none" d="M0 1097.143h137.143v137.143H0z"/><path fill="#d7dbdf3a" d="M137.143 1097.143h137.143v137.143H137.143z"/><path fill="none" d="M274.286 1097.143h137.143v137.143H274.286zM411.429 1097.143h137.143v137.143H411.429z"/><path fill="none" d="M548.571 1097.143h137.143v137.143H548.571zM685.714 1097.143h137.143v137.143H685.714z"/><path fill="#d7dbdf48" d="M822.857 1097.143H960v137.143H822.857z"/><path fill="none" d="M960 1097.143h137.143v137.143H960z"/><path fill="#d7dbdf9b" d="M1097.143 1097.143h137.143v137.143h-137.143z"/><path fill="#d7dbdfcb" d="M1234.286 1097.143h137.143v137.143h-137.143z"/><path fill="none" d="M1371.429 1097.143h137.143v137.143h-137.143z"/><path fill="none" d="M1508.571 1097.143h137.143v137.143h-137.143zM1645.714 1097.143h137.143v137.143h-137.143zM1782.857 1097.143H1920v137.143h-137.143zM1920 1097.143h137.143v137.143H1920zM2057.143 1097.143h137.143v137.143h-137.143zM2194.286 1097.143h137.143v137.143h-137.143z"/><path fill="#d7dbdf0d" d="M2331.429 1097.143h137.143v137.143h-137.143z"/><path fill="none" d="M2468.571 1097.143h137.143v137.143h-137.143z"/><path fill="#d7dbdf6d" d="M2605.714 1097.143h137.143v137.143h-137.143z"/><path fill="none" d="M2742.857 1097.143H2880v137.143h-137.143zM2880 1097.143h137.143v137.143H2880zM3017.143 1097.143h137.143v137.143h-137.143zM3154.286 1097.143h137.143v137.143h-137.143z"/><path fill="#d7dbdf7e" d="M3291.429 1097.143h137.143v137.143h-137.143z"/><path fill="none" d="M3428.571 1097.143h137.143v137.143h-137.143zM3565.714 1097.143h137.143v137.143h-137.143z"/><path fill="#d7dbdf88" d="M3702.857 1097.143H3840v137.143h-137.143z"/><path fill="none" d="M0 1234.286h137.143v137.143H0zM137.143 1234.286h137.143v137.143H137.143zM274.286 1234.286h137.143v137.143H274.286z"/><path fill="#d7dbdf32" d="M411.429 1234.286h137.143v137.143H411.429z"/><path fill="none" d="M548.571 1234.286h137.143v137.143H548.571zM685.714 1234.286h137.143v137.143H685.714z"/><path fill="none" d="M822.857 1234.286H960v137.143H822.857zM960 1234.286h137.143v137.143H960zM1097.143 1234.286h137.143v137.143h-137.143zM1234.286 1234.286h137.143v137.143h-137.143zM1371.429 1234.286h137.143v137.143h-137.143z"/><path fill="none" d="M1508.571 1234.286h137.143v137.143h-137.143zM1645.714 1234.286h137.143v137.143h-137.143z"/><path fill="#d7dbdf46" d="M1782.857 1234.286H1920v137.143h-137.143z"/><path fill="none" d="M1920 1234.286h137.143v137.143H1920zM2057.143 1234.286h137.143v137.143h-137.143zM2194.286 1234.286h137.143v137.143h-137.143zM2331.429 1234.286h137.143v137.143h-137.143z"/><path fill="none" d="M2468.571 1234.286h137.143v137.143h-137.143z"/><path fill="#d7dbdf71" d="M2605.714 1234.286h137.143v137.143h-137.143z"/><path fill="none" d="M2742.857 1234.286H2880v137.143h-137.143z"/><path fill="#d7dbdfea" d="M2880 1234.286h137.143v137.143H2880z"/><path fill="none" d="M3017.143 1234.286h137.143v137.143h-137.143z"/><path fill="#d7dbdfd5" d="M3154.286 1234.286h137.143v137.143h-137.143z"/><path fill="none" d="M3291.429 1234.286h137.143v137.143h-137.143z"/><path fill="none" d="M3428.571 1234.286h137.143v137.143h-137.143zM3565.714 1234.286h137.143v137.143h-137.143zM3702.857 1234.286H3840v137.143h-137.143z"/><path fill="#d7dbdf9f" d="M0 1371.429h137.143v137.143H0z"/><path fill="none" d="M137.143 1371.429h137.143v137.143H137.143zM274.286 1371.429h137.143v137.143H274.286z"/><path fill="#d7dbdf07" d="M411.429 1371.429h137.143v137.143H411.429z"/><path fill="none" d="M548.571 1371.429h137.143v137.143H548.571zM685.714 1371.429h137.143v137.143H685.714z"/><path fill="none" d="M822.857 1371.429H960v137.143H822.857zM960 1371.429h137.143v137.143H960z"/><path fill="#d7dbdf80" d="M1097.143 1371.429h137.143v137.143h-137.143z"/><path fill="none" d="M1234.286 1371.429h137.143v137.143h-137.143zM1371.429 1371.429h137.143v137.143h-137.143z"/><path fill="none" d="M1508.571 1371.429h137.143v137.143h-137.143zM1645.714 1371.429h137.143v137.143h-137.143zM1782.857 1371.429H1920v137.143h-137.143zM1920 1371.429h137.143v137.143H1920zM2057.143 1371.429h137.143v137.143h-137.143zM2194.286 1371.429h137.143v137.143h-137.143zM2331.429 1371.429h137.143v137.143h-137.143z"/><path fill="none" d="M2468.571 1371.429h137.143v137.143h-137.143z"/><path fill="#d7dbdf45" d="M2605.714 1371.429h137.143v137.143h-137.143z"/><path fill="none" d="M2742.857 1371.429H2880v137.143h-137.143z"/><path fill="#d7dbdffd" d="M2880 1371.429h137.143v137.143H2880z"/><path fill="none" d="M3017.143 1371.429h137.143v137.143h-137.143zM3154.286 1371.429h137.143v137.143h-137.143z"/><path fill="#d7dbdf5b" d="M3291.429 1371.429h137.143v137.143h-137.143z"/><path fill="#d7dbdff1" d="M3428.571 1371.429h137.143v137.143h-137.143z"/><path fill="none" d="M3565.714 1371.429h137.143v137.143h-137.143z"/><path fill="#d7dbdf5f" d="M3702.857 1371.429H3840v137.143h-137.143z"/><path fill="none" d="M0 1508.571h137.143v137.143H0z"/><path fill="#d7dbdfe7" d="M137.143 1508.571h137.143v137.143H137.143z"/><path fill="none" d="M274.286 1508.571h137.143v137.143H274.286zM411.429 1508.571h137.143v137.143H411.429z"/><path fill="none" d="M548.571 1508.571h137.143v137.143H548.571zM685.714 1508.571h137.143v137.143H685.714z"/><path fill="none" d="M822.857 1508.571H960v137.143H822.857z"/><path fill="#d7dbdfa8" d="M960 1508.571h137.143v137.143H960z"/><path fill="none" d="M1097.143 1508.571h137.143v137.143h-137.143zM1234.286 1508.571h137.143v137.143h-137.143z"/><path fill="#d7dbdf84" d="M1371.429 1508.571h137.143v137.143h-137.143z"/><path fill="#d7dbdf02" d="M1508.571 1508.571h137.143v137.143h-137.143z"/><path fill="#d7dbdf38" d="M1645.714 1508.571h137.143v137.143h-137.143z"/><path fill="none" d="M1782.857 1508.571H1920v137.143h-137.143zM1920 1508.571h137.143v137.143H1920z"/><path fill="#d7dbdff1" d="M2057.143 1508.571h137.143v137.143h-137.143z"/><path fill="#d7dbdf50" d="M2194.286 1508.571h137.143v137.143h-137.143z"/><path fill="#d7dbdf08" d="M2331.429 1508.571h137.143v137.143h-137.143z"/><path fill="#d7dbdf6e" d="M2468.571 1508.571h137.143v137.143h-137.143z"/><path fill="#d7dbdf79" d="M2605.714 1508.571h137.143v137.143h-137.143z"/><path fill="none" d="M2742.857 1508.571H2880v137.143h-137.143zM2880 1508.571h137.143v137.143H2880zM3017.143 1508.571h137.143v137.143h-137.143zM3154.286 1508.571h137.143v137.143h-137.143zM3291.429 1508.571h137.143v137.143h-137.143z"/><path fill="none" d="M3428.571 1508.571h137.143v137.143h-137.143zM3565.714 1508.571h137.143v137.143h-137.143z"/><path fill="#d7dbdfdb" d="M3702.857 1508.571H3840v137.143h-137.143z"/><path fill="#d7dbdfc8" d="M0 1645.714h137.143v137.143H0z"/><path fill="none" d="M137.143 1645.714h137.143v137.143H137.143zM274.286 1645.714h137.143v137.143H274.286z"/><path fill="#d7dbdff3" d="M411.429 1645.714h137.143v137.143H411.429z"/><path fill="none" d="M548.571 1645.714h137.143v137.143H548.571zM685.714 1645.714h137.143v137.143H685.714z"/><path fill="none" d="M822.857 1645.714H960v137.143H822.857zM960 1645.714h137.143v137.143H960zM1097.143 1645.714h137.143v137.143h-137.143z"/><path fill="#d7dbdfb1" d="M1234.286 1645.714h137.143v137.143h-137.143z"/><path fill="#d7dbdfa8" d="M1371.429 1645.714h137.143v137.143h-137.143z"/><path fill="none" d="M1508.571 1645.714h137.143v137.143h-137.143zM1645.714 1645.714h137.143v137.143h-137.143zM1782.857 1645.714H1920v137.143h-137.143z"/><path fill="#d7dbdff5" d="M1920 1645.714h137.143v137.143H1920z"/><path fill="#d7dbdfcc" d="M2057.143 1645.714h137.143v137.143h-137.143z"/><path fill="#d7dbdf27" d="M2194.286 1645.714h137.143v137.143h-137.143z"/><path fill="#d7dbdf9d" d="M2331.429 1645.714h137.143v137.143h-137.143z"/><path fill="none" d="M2468.571 1645.714h137.143v137.143h-137.143zM2605.714 1645.714h137.143v137.143h-137.143z"/><path fill="#d7dbdf8c" d="M2742.857 1645.714H2880v137.143h-137.143z"/><path fill="none" d="M2880 1645.714h137.143v137.143H2880zM3017.143 1645.714h137.143v137.143h-137.143zM3154.286 1645.714h137.143v137.143h-137.143zM3291.429 1645.714h137.143v137.143h-137.143z"/><path fill="#d7dbdfe5" d="M3428.571 1645.714h137.143v137.143h-137.143z"/><path fill="none" d="M3565.714 1645.714h137.143v137.143h-137.143zM3702.857 1645.714H3840v137.143h-137.143zM0 1782.857h137.143V1920H0zM137.143 1782.857h137.143V1920H137.143z"/><path fill="#d7dbdf09" d="M274.286 1782.857h137.143V1920H274.286z"/><path fill="none" d="M411.429 1782.857h137.143V1920H411.429z"/><path fill="none" d="M548.571 1782.857h137.143V1920H548.571z"/><path fill="#d7dbdfa7" d="M685.714 1782.857h137.143V1920H685.714z"/><path fill="none" d="M822.857 1782.857H960V1920H822.857z"/><path fill="#d7dbdfc4" d="M960 1782.857h137.143V1920H960z"/><path fill="none" d="M1097.143 1782.857h137.143V1920h-137.143zM1234.286 1782.857h137.143V1920h-137.143z"/><path fill="#d7dbdfd6" d="M1371.429 1782.857h137.143V1920h-137.143z"/><path fill="#d7dbdf2d" d="M1508.571 1782.857h137.143V1920h-137.143z"/><path fill="#d7dbdf0f" d="M1645.714 1782.857h137.143V1920h-137.143z"/><path fill="none" d="M1782.857 1782.857H1920V1920h-137.143zM1920 1782.857h137.143V1920H1920zM2057.143 1782.857h137.143V1920h-137.143z"/><path fill="#d7dbdfcb" d="M2194.286 1782.857h137.143V1920h-137.143z"/><path fill="#d7dbdf0e" d="M2331.429 1782.857h137.143V1920h-137.143z"/><path fill="#d7dbdf4b" d="M2468.571 1782.857h137.143V1920h-137.143z"/><path fill="#d7dbdf2b" d="M2605.714 1782.857h137.143V1920h-137.143z"/><path fill="none" d="M2742.857 1782.857H2880V1920h-137.143z"/><path fill="#d7dbdf8d" d="M2880 1782.857h137.143V1920H2880z"/><path fill="#d7dbdf44" d="M3017.143 1782.857h137.143V1920h-137.143z"/><path fill="none" d="M3154.286 1782.857h137.143V1920h-137.143zM3291.429 1782.857h137.143V1920h-137.143z"/><path fill="#d7dbdf16" d="M3428.571 1782.857h137.143V1920h-137.143z"/><path fill="none" d="M3565.714 1782.857h137.143V1920h-137.143zM3702.857 1782.857H3840V1920h-137.143zM0 1920h137.143v137.143H0z"/><path fill="#d7dbdf78" d="M137.143 1920h137.143v137.143H137.143z"/><path fill="#d7dbdf49" d="M274.286 1920h137.143v137.143H274.286z"/><path fill="none" d="M411.429 1920h137.143v137.143H411.429z"/><path fill="none" d="M548.571 1920h137.143v137.143H548.571zM685.714 1920h137.143v137.143H685.714z"/><path fill="#d7dbdfcd" d="M822.857 1920H960v137.143H822.857z"/><path fill="none" d="M960 1920h137.143v137.143H960zM1097.143 1920h137.143v137.143h-137.143zM1234.286 1920h137.143v137.143h-137.143zM1371.429 1920h137.143v137.143h-137.143z"/><path fill="#d7dbdf16" d="M1508.571 1920h137.143v137.143h-137.143z"/><path fill="#d7dbdf14" d="M1645.714 1920h137.143v137.143h-137.143z"/><path fill="none" d="M1782.857 1920H1920v137.143h-137.143z"/><path fill="#d7dbdf64" d="M1920 1920h137.143v137.143H1920z"/><path fill="#d7dbdfe4" d="M2057.143 1920h137.143v137.143h-137.143z"/><path fill="none" d="M2194.286 1920h137.143v137.143h-137.143zM2331.429 1920h137.143v137.143h-137.143z"/><path fill="none" d="M2468.571 1920h137.143v137.143h-137.143z"/><path fill="#d7dbdf4f" d="M2605.714 1920h137.143v137.143h-137.143z"/><path fill="#d7dbdf6f" d="M2742.857 1920H2880v137.143h-137.143z"/><path fill="none" d="M2880 1920h137.143v137.143H2880z"/><path fill="#d7dbdf8b" d="M3017.143 1920h137.143v137.143h-137.143z"/><path fill="none" d="M3154.286 1920h137.143v137.143h-137.143zM3291.429 1920h137.143v137.143h-137.143z"/><path fill="#d7dbdf2b" d="M3428.571 1920h137.143v137.143h-137.143z"/><path fill="none" d="M3565.714 1920h137.143v137.143h-137.143zM3702.857 1920H3840v137.143h-137.143zM0 2057.143h137.143v137.143H0zM137.143 2057.143h137.143v137.143H137.143zM274.286 2057.143h137.143v137.143H274.286z"/><path fill="#d7dbdf54" d="M411.429 2057.143h137.143v137.143H411.429z"/><path fill="none" d="M548.571 2057.143h137.143v137.143H548.571zM685.714 2057.143h137.143v137.143H685.714z"/><path fill="none" d="M822.857 2057.143H960v137.143H822.857z"/><path fill="#d7dbdf48" d="M960 2057.143h137.143v137.143H960z"/><path fill="none" d="M1097.143 2057.143h137.143v137.143h-137.143zM1234.286 2057.143h137.143v137.143h-137.143z"/><path fill="#d7dbdf49" d="M1371.429 2057.143h137.143v137.143h-137.143z"/><path fill="#d7dbdfe3" d="M1508.571 2057.143h137.143v137.143h-137.143z"/><path fill="#d7dbdf70" d="M1645.714 2057.143h137.143v137.143h-137.143z"/><path fill="none" d="M1782.857 2057.143H1920v137.143h-137.143zM1920 2057.143h137.143v137.143H1920z"/><path fill="#d7dbdf0b" d="M2057.143 2057.143h137.143v137.143h-137.143z"/><path fill="#d7dbdfdf" d="M2194.286 2057.143h137.143v137.143h-137.143z"/><path fill="#d7dbdf19" d="M2331.429 2057.143h137.143v137.143h-137.143z"/><path fill="none" d="M2468.571 2057.143h137.143v137.143h-137.143zM2605.714 2057.143h137.143v137.143h-137.143zM2742.857 2057.143H2880v137.143h-137.143zM2880 2057.143h137.143v137.143H2880z"/><path fill="#d7dbdf7c" d="M3017.143 2057.143h137.143v137.143h-137.143z"/><path fill="none" d="M3154.286 2057.143h137.143v137.143h-137.143zM3291.429 2057.143h137.143v137.143h-137.143z"/><path fill="none" d="M3428.571 2057.143h137.143v137.143h-137.143zM3565.714 2057.143h137.143v137.143h-137.143z"/><path fill="#d7dbdff6" d="M3702.857 2057.143H3840v137.143h-137.143z"/></g><defs><radialGradient id="a"><stop offset="0" stop-color="#fff" stop-opacity=".964"/><stop offset="97%" stop-color="#fff" stop-opacity="0"/></radialGradient></defs></svg>