<svg xmlns="http://www.w3.org/2000/svg" width="35" height="35" fill="none"><g clip-path="url(#a)"><g clip-path="url(#b)"><path fill="#fff" d="M29.675 22.576c1.297 1.316 1.882 2.75 1.678 4.437a4.792 4.792 0 0 1-1.444 2.916c-1.014.985-2.243 1.473-3.657 1.434-1.404-.04-2.555-.634-3.637-1.688-.273 3.228-1.824 5.315-5.071 5.315-3.238 0-4.808-2.067-5.071-5.315-1.346 1.307-2.819 1.892-4.564 1.629a4.827 4.827 0 0 1-2.848-1.482c-.965-1.014-1.433-2.233-1.385-3.638.05-1.375.624-2.526 1.678-3.579-.264-.058-.42-.107-.576-.117-2.34-.117-4.252-1.755-4.69-4.027a4.917 4.917 0 0 1 2.867-5.471c.556-.244 1.18-.312 1.784-.449.147-.039.312-.03.595-.049-2.077-2.457-2.457-5.032-.166-7.323 2.292-2.302 4.867-1.931 7.353.175.03-1.892.663-3.364 2.107-4.408.897-.653 1.911-.956 3.023-.926 1.404.039 2.584.575 3.54 1.6.946 1.004 1.336 2.232 1.346 3.705 2.78-2.204 5.412-2.37 7.82.341.85.966 1.122 2.185 1.005 3.472-.117 1.277-.682 2.35-1.696 3.325 3.315.293 5.402 1.892 5.344 5.188-.05 3.16-2.107 4.691-5.335 4.935zM7.821 13.399c-.02.049-.049.108-.068.156a8.7 8.7 0 0 0 .331.293c.702.585 1.424 1.14 2.087 1.755 1.2 1.092 1.21 2.721.02 3.813-.663.615-1.395 1.17-2.087 1.756-.127.107-.234.224-.351.331.02.04.039.088.058.127.146-.01.302-.01.449-.03.907-.077 1.814-.194 2.72-.233 1.649-.069 2.8 1.082 2.721 2.73-.039.888-.165 1.775-.243 2.672-.01.156 0 .322 0 .488.039.02.087.03.126.049.108-.127.225-.254.332-.38.595-.713 1.16-1.444 1.785-2.127 1.121-1.209 2.584-1.2 3.696.01.634.692 1.209 1.443 1.814 2.165.097.117.224.215.34.312.04-.02.079-.049.108-.068-.02-.176-.03-.341-.049-.517-.078-.936-.204-1.872-.234-2.818-.058-1.541 1.014-2.594 2.555-2.526.976.049 1.94.166 2.916.244.146.01.293 0 .43 0 .009-.04.028-.088.038-.127-.117-.098-.224-.205-.341-.302-.702-.585-1.424-1.132-2.097-1.746-1.18-1.082-1.2-2.682-.039-3.784.673-.634 1.414-1.19 2.126-1.784.127-.108.224-.225.341-.342-.019-.039-.038-.078-.058-.127-.166.01-.332.02-.497.04-.907.078-1.805.204-2.721.234-1.57.058-2.701-1.073-2.653-2.643.03-.888.156-1.775.224-2.672.02-.195 0-.39 0-.576-.039-.02-.087-.029-.126-.048l-.322.38c-.644.76-1.248 1.54-1.921 2.262-.975 1.024-2.448 1.024-3.413-.01-.673-.721-1.288-1.51-1.922-2.262a11.293 11.293 0 0 0-.331-.37c-.049.02-.088.039-.137.058.01.195.01.39.03.585.078.956.204 1.912.234 2.867.048 1.405-1.005 2.477-2.41 2.429-1.004-.03-2.008-.166-3.003-.244-.146 0-.302-.01-.458-.02z"/></g></g><defs><clipPath id="a"><path fill="#fff" d="M0 0h35v35H0z"/></clipPath><clipPath id="b"><path fill="#fff" d="M0 0h35.02v35H0z"/></clipPath></defs></svg>