<svg xmlns="http://www.w3.org/2000/svg" width="50" height="50" fill="none"><g clip-path="url(#a)"><g clip-path="url(#b)"><path fill="#B8FF33" d="M42.393 32.252c1.853 1.88 2.69 3.928 2.396 6.339a6.846 6.846 0 0 1-2.061 4.165c-1.45 1.407-3.205 2.104-5.225 2.048-2.006-.056-3.65-.905-5.196-2.41-.39 4.611-2.605 7.593-7.244 7.593-4.626 0-6.869-2.954-7.245-7.593-1.922 1.867-4.026 2.703-6.52 2.327a6.894 6.894 0 0 1-4.068-2.118c-1.379-1.449-2.048-3.19-1.978-5.197.07-1.964.892-3.608 2.396-5.112-.376-.084-.599-.154-.822-.167-3.343-.168-6.074-2.508-6.7-5.754-.628-3.246 1.016-6.45 4.095-7.816.794-.348 1.686-.446 2.55-.64.209-.056.445-.042.85-.07-2.968-3.511-3.511-7.189-.237-10.463 3.273-3.288 6.951-2.758 10.504.251.042-2.703.947-4.806 3.01-6.297 1.28-.933 2.73-1.365 4.318-1.324 2.006.056 3.692.822 5.057 2.285 1.351 1.435 1.909 3.19 1.923 5.294 3.97-3.148 7.731-3.385 11.172.488 1.212 1.379 1.603 3.12 1.435 4.96-.167 1.824-.975 3.357-2.424 4.75 4.737.418 7.718 2.703 7.635 7.412-.07 4.513-3.01 6.7-7.62 7.049zm-31.22-13.11c-.028.07-.07.154-.098.223.154.14.32.293.474.418 1.003.836 2.034 1.63 2.981 2.508 1.714 1.56 1.728 3.887.028 5.447-.947.878-1.992 1.672-2.981 2.508-.181.153-.334.32-.502.473.028.056.056.126.084.181.209-.013.432-.013.64-.041 1.296-.112 2.592-.279 3.888-.335 2.354-.097 3.998 1.547 3.887 3.901-.056 1.268-.237 2.536-.349 3.817-.014.223 0 .46 0 .697.056.028.126.042.181.07.154-.181.32-.363.474-.544.85-1.017 1.658-2.062 2.55-3.037 1.602-1.727 3.691-1.713 5.28.014.905.99 1.727 2.062 2.59 3.093.14.167.321.307.488.446.056-.028.112-.07.154-.098-.028-.25-.042-.487-.07-.738-.111-1.338-.293-2.675-.334-4.026-.084-2.201 1.448-3.706 3.65-3.609 1.393.07 2.772.237 4.165.349.21.014.418 0 .613 0 .014-.056.042-.126.056-.181-.167-.14-.32-.293-.488-.432-1.003-.836-2.034-1.616-2.995-2.494-1.686-1.546-1.714-3.831-.056-5.405.962-.906 2.02-1.7 3.037-2.55.181-.153.32-.32.488-.487-.028-.056-.056-.112-.084-.182-.236.014-.473.028-.71.056-1.296.112-2.578.293-3.887.334-2.243.084-3.859-1.532-3.79-3.775.042-1.268.224-2.535.321-3.817.028-.279 0-.557 0-.822-.056-.028-.125-.042-.181-.07l-.46.544c-.92 1.086-1.783 2.2-2.744 3.232-1.393 1.463-3.497 1.463-4.876-.014-.962-1.031-1.84-2.16-2.745-3.232a16.124 16.124 0 0 0-.474-.53c-.07.028-.125.056-.195.084.014.278.014.557.042.836.112 1.365.293 2.73.335 4.096.07 2.006-1.435 3.538-3.441 3.468-1.435-.041-2.87-.236-4.291-.348-.21 0-.432-.014-.655-.028z"/></g></g><defs><clipPath id="a"><path fill="#fff" d="M0 0h50v50H0z"/></clipPath><clipPath id="b"><path fill="#fff" d="M0 0h50.028v50H0z"/></clipPath></defs></svg>