<svg xmlns="http://www.w3.org/2000/svg" width="34" height="34" fill="none"><g clip-path="url(#a)"><g clip-path="url(#b)"><path fill="#1A1A1A" d="M28.828 21.931c1.26 1.279 1.828 2.672 1.63 4.31a4.655 4.655 0 0 1-1.403 2.833c-.985.957-2.179 1.43-3.552 1.393-1.365-.038-2.483-.616-3.534-1.64-.265 3.136-1.772 5.164-4.926 5.164-3.145 0-4.67-2.009-4.926-5.163-1.308 1.27-2.738 1.838-4.434 1.582a4.688 4.688 0 0 1-2.766-1.44c-.938-.985-1.393-2.17-1.345-3.534.047-1.335.606-2.453 1.63-3.477-.257-.056-.408-.104-.56-.113C2.37 21.732.512 20.14.085 17.933a4.777 4.777 0 0 1 2.786-5.314c.54-.237 1.146-.303 1.733-.436.142-.038.303-.028.578-.047-2.018-2.388-2.387-4.889-.16-7.115 2.225-2.236 4.726-1.876 7.142.17.028-1.837.644-3.268 2.046-4.281.872-.635 1.857-.929 2.937-.9 1.364.038 2.51.559 3.439 1.553.919.976 1.298 2.17 1.307 3.6 2.7-2.14 5.258-2.302 7.598.332.824.938 1.09 2.122.976 3.372-.114 1.241-.663 2.283-1.649 3.23 3.221.285 5.248 1.839 5.192 5.04-.048 3.07-2.047 4.557-5.182 4.794zm-21.23-8.914c-.02.047-.048.104-.066.151.104.095.217.2.322.284.682.569 1.383 1.109 2.027 1.706 1.165 1.06 1.175 2.643.019 3.704-.644.597-1.355 1.137-2.027 1.705-.124.104-.228.218-.341.322.018.038.037.085.056.123.142-.01.294-.01.436-.028.881-.076 1.762-.19 2.643-.228 1.601-.066 2.72 1.052 2.643 2.653-.038.862-.16 1.724-.237 2.596-.009.151 0 .312 0 .473.038.02.086.029.124.048.104-.123.218-.247.322-.37.578-.691 1.127-1.402 1.733-2.065 1.09-1.175 2.51-1.165 3.59.01.617.672 1.175 1.402 1.763 2.103.095.113.218.208.331.303.038-.02.076-.048.105-.067-.02-.17-.029-.331-.048-.502-.076-.91-.199-1.819-.227-2.737-.057-1.497.985-2.52 2.482-2.454.947.047 1.885.161 2.832.237.143.01.285 0 .417 0 .01-.038.029-.086.038-.123-.113-.095-.218-.2-.331-.294-.683-.569-1.384-1.099-2.037-1.696-1.147-1.051-1.165-2.605-.038-3.675.654-.616 1.373-1.156 2.065-1.734.123-.104.218-.218.332-.332a1.535 1.535 0 0 1-.057-.123c-.161.01-.322.02-.483.038-.881.076-1.753.199-2.643.227-1.526.057-2.625-1.042-2.577-2.567.028-.862.151-1.724.218-2.596.019-.189 0-.378 0-.558-.038-.02-.086-.029-.123-.048l-.313.37c-.625.739-1.213 1.496-1.866 2.197-.948.995-2.378.995-3.316-.009-.654-.701-1.25-1.468-1.866-2.198a11.11 11.11 0 0 0-.322-.36c-.048.02-.086.038-.133.057.01.19.01.379.028.568.076.929.2 1.857.228 2.786.047 1.364-.976 2.406-2.34 2.358-.976-.028-1.952-.16-2.918-.236a6.9 6.9 0 0 1-.445-.02z"/></g></g><defs><clipPath id="a"><path fill="#fff" d="M0 0h34v34H0z"/></clipPath><clipPath id="b"><path fill="#fff" d="M0 0h34.019v34H0z"/></clipPath></defs></svg>