<svg width="72" height="51" viewBox="0 0 72 51" fill="none" xmlns="http://www.w3.org/2000/svg">
<path d="M5 36.5632C8.3773 38.8092 21.7253 50.315 26.5472 44.7688C28.2755 42.7808 27.3005 37.8743 26.3821 35.6515C25.4831 33.4755 23.2222 31.602 21.7741 29.7742C21.0592 28.8719 18.3585 27.1331 19.5102 27.1666C23.981 27.2963 35.4309 36.5328 39.0121 34.0139C42.7794 31.3641 39.7515 21.3637 37.5895 18.4012C36.0846 16.3392 31.1287 10.5971 33.1398 12.1683C37.6311 15.6773 45.444 24.1078 51.7416 23.2262C59.9165 22.0818 64.4694 11.5045 67.0934 5.25898" stroke="url(#paint0_linear_226_404)" stroke-width="9" stroke-linecap="round"/>
<defs>
<linearGradient id="paint0_linear_226_404" x1="8.13644" y1="32.5487" x2="49.3477" y2="-5.82188" gradientUnits="userSpaceOnUse">
<stop stop-color="#D9B227"/>
<stop offset="1" stop-color="#FD4141"/>
</linearGradient>
</defs>
</svg>
